<svg width="100" height="100" viewBox="150.6064910888672 4 147.3935089111328 232.91741943359375" fill="none" xmlns="http://www.w3.org/2000/svg">
  <path d="M298 4c-2.768 8.856 -7.684 15.254 -13.32 22.46 -2.8 3.472 -2.8 3.472 -4.68 7.54l3.624 1.75C288 38 288 38 294 42v6c-5.56 2.78 -9.838 2.37 -16 2a130 130 0 0 1 -8 -4c-39.542 56.866 -39.542 56.866 -58 122 18.872 4.858 34.182 4.776 52.226 -2.726 5.988 -2.022 11.544 -1.772 17.774 -1.274l4 2c-0.43 3.672 -0.43 3.672 -2 8 -19.36 13.662 -41.056 15.412 -64 14 -5.03 -0.928 -9.21 -2.176 -14 -4l2 28c14.144 0 19.41 -3.37 30 -12a346 346 0 0 0 8 -10h6c-3.304 16.864 -17.258 31.244 -30 42 -8.76 5.426 -17.982 5.684 -28 4 -7.324 -6.788 -9.908 -11.866 -10.336 -21.774q-0.034 -4.8 -0.04 -9.602l-0.074 -4.792c-0.024 -10.058 1.222 -18.3 4.45 -27.832l-3.508 -1.5c-15.548 -8.654 -26.776 -27.51 -31.576 -44.29 -4.902 -22.526 -2.222 -47.626 10.17 -67.046 13.794 -18.844 30.784 -32.566 53.75 -38.39C236.656 17.804 253.8 19.68 272 28l1.438 -3.468c3.114 -5.508 6.812 -8.868 11.562 -13.032l4.812 -4.282C294 4 294 4 298 4M181.376 58.624C167.81 75.582 164.178 94.782 166 116c3.852 16.622 11.542 32.362 26 42l1.734 -4.114c14.962 -35.29 31.106 -66.788 53.742 -97.644 4.342 -5.992 8.462 -12.06 12.524 -18.242q-4.684 -1.016 -9.376 -2l-5.272 -1.124c-24.344 -3.982 -47.498 6.036 -63.976 23.748" fill="#ffffff"/>
</svg>
